<svg id="Capa_1" enable-background="new 0 0 235.071 235.071" height="512" viewBox="0 0 235.071 235.071" width="512" xmlns="http://www.w3.org/2000/svg"><path d="m117.53 117.536h11.753v35.26h-11.753z"/><path d="m152.79 133.207h11.753v19.589h-11.753z"/><path d="m82.27 141.042h11.753v11.753h-11.753z"/><path d="m231.146 31.344h-43.096v-3.33c0-6.805-5.536-12.341-12.341-12.341h-46.426l6.268-4.701c1.732-1.297 2.08-3.753.784-5.481-1.297-1.732-3.749-2.076-5.485-.784l-9.403 7.052v-7.835c0-2.167-1.755-3.918-3.918-3.918s-3.918 1.751-3.918 3.918v7.836l-9.403-7.052c-1.736-1.293-4.188-.948-5.485.784-1.301 1.728-.948 4.184.784 5.481l6.276 4.701h-46.43c-6.805 0-12.341 5.536-12.341 12.341v3.33h-43.094c-2.163-.001-3.918 1.751-3.918 3.917v144.958c0 2.167 1.755 3.918 3.918 3.918h85.584l-37.642 44.483c-1.399 1.649-1.191 4.122.458 5.52 1.653 1.387 4.125 1.191 5.52-.462l28.663-33.873h62.066l28.663 33.873c.776.917 1.877 1.387 2.993 1.387.893 0 1.794-.306 2.531-.925 1.649-1.399 1.857-3.871.458-5.52l-37.638-44.483h85.58c2.163 0 3.918-1.751 3.918-3.918v-144.958c-.009-2.166-1.764-3.918-3.926-3.918zm-38.669 23.605c.756.125 1.473.392 2.072.925 1.05.932 1.332 2.304 1.332 3.64v17.015 1.689.141c0 2.167-1.755 3.918-3.918 3.918s-3.918-1.751-3.918-3.918v-8.615l-28.31 34.602c-1.273 1.559-3.53 1.896-5.207.78l-32.587-21.726-40.823 40.823c-.764.764-1.767 1.148-2.77 1.148s-2.006-.384-2.77-1.148c-1.532-1.532-1.532-4.008 0-5.54l43.096-43.096c1.32-1.32 3.385-1.532 4.944-.49l32.306 21.536 27.777-33.948h-11.322c-2.163 0-3.918-1.751-3.918-3.918s1.755-3.918 3.918-3.918h1.132 17.634c.447.002.893.026 1.332.1zm-137.632-26.935c0-2.488 2.022-4.505 4.505-4.505h116.358c2.484 0 4.505 2.022 4.505 4.505v3.33h-125.368zm-11.753 132.617h-15.671c-2.163 0-3.918-1.751-3.918-3.918s1.755-3.918 3.918-3.918h15.671c2.163 0 3.918 1.751 3.918 3.918s-1.756 3.918-3.918 3.918zm15.671-15.671h-31.342c-2.163 0-3.918-1.751-3.918-3.918s1.755-3.918 3.918-3.918h31.342c2.163 0 3.918 1.751 3.918 3.918s-1.755 3.918-3.918 3.918zm-35.26-27.424c0-2.167 1.755-3.918 3.918-3.918h15.671c2.163 0 3.918 1.751 3.918 3.918s-1.755 3.918-3.918 3.918h-15.671c-2.163-.001-3.918-1.752-3.918-3.918zm35.26-11.754h-31.342c-2.163 0-3.918-1.751-3.918-3.918s1.755-3.918 3.918-3.918h31.342c2.163 0 3.918 1.751 3.918 3.918s-1.755 3.918-3.918 3.918zm-35.26-27.424c0-2.167 1.755-3.918 3.918-3.918h15.671c2.163 0 3.918 1.751 3.918 3.918s-1.755 3.918-3.918 3.918h-15.671c-2.163 0-3.918-1.752-3.918-3.918zm35.26-11.754h-31.342c-2.163 0-3.918-1.751-3.918-3.918s1.755-3.918 3.918-3.918h31.342c2.163 0 3.918 1.751 3.918 3.918s-1.755 3.918-3.918 3.918zm83.167 125.37h-48.804l6.629-7.836h35.542zm69.627-31.343h-7.836-19.589-15.671-19.589-15.671-19.589-15.671-19.589-7.836c-2.163 0-3.918-1.751-3.918-3.918s1.755-3.918 3.918-3.918h3.918v-15.671c0-2.167 1.755-3.918 3.918-3.918h19.589c2.163 0 3.918 1.751 3.918 3.918v15.671h7.836v-39.178c0-2.167 1.755-3.918 3.918-3.918h19.589c2.163 0 3.918 1.751 3.918 3.918v39.178h7.836v-23.507c0-2.167 1.755-3.918 3.918-3.918h19.589c2.163 0 3.918 1.751 3.918 3.918v23.507h7.836v-54.848c0-2.167 1.755-3.918 3.918-3.918h19.589c2.163 0 3.918 1.751 3.918 3.918v54.849h3.918c2.163 0 3.918 1.751 3.918 3.918-.003 2.166-1.759 3.917-3.921 3.917z"/><path d="m188.05 101.865h11.753v50.931h-11.753z"/></svg>