<svg height="512pt" viewBox="0 0 512.00977 512" width="512pt" xmlns="http://www.w3.org/2000/svg"><path d="m322.503906 336.328125-56.738281-56.738281v80.242187c7.390625-7.398437 16.097656-13.496093 25.945313-17.582031 9.863281-4.085938 20.339843-5.929688 30.792968-5.921875zm0 0"/><path d="m246.234375 359.832031v-80.242187l-56.574219 56.574218c10.40625.007813 20.816406 2.03125 30.617188 6.097657 9.851562 4.074219 18.558594 10.171875 25.957031 17.570312zm0 0"/><path d="m279.59375 265.773438 56.738281 56.738281c-.007812-10.46875 1.839844-20.933594 5.921875-30.785157 4.078125-9.847656 10.183594-18.566406 17.582032-25.953124zm0 0"/><path d="m232.40625 246.226562-56.738281-56.738281c0 10.457031-1.847657 20.933594-5.921875 30.785157-4.078125 9.847656-10.175782 18.566406-17.582032 25.953124zm0 0"/><path d="m443.9375 81.886719-82.917969 82.917969c-6.773437 15.195312-7.085937 32.582031-.707031 47.980468 6.375 15.414063 18.890625 27.480469 34.429688 33.441406h117.269531c-31.617188-11.675781-57.109375-36.078124-70.03125-67.261718-12.917969-31.171875-12.144531-66.460938 1.957031-97.078125zm0 0"/><path d="m152.175781 265.773438c7.40625 7.386718 13.492188 16.105468 17.578125 25.953124 4.074219 9.851563 5.933594 20.316407 5.921875 30.773438l56.738281-56.738281h-80.238281zm0 0"/><path d="m189.484375 175.671875 56.738281 56.738281v-80.242187c-7.386718 7.398437-16.105468 13.496093-25.953125 17.582031-9.851562 4.074219-20.320312 5.929688-30.785156 5.921875zm0 0"/><path d="m291.722656 169.75c-9.851562-4.074219-18.558594-10.171875-25.945312-17.582031v80.242187l56.738281-56.738281c-10.464844.007813-20.941406-1.847656-30.792969-5.921875zm0 0"/><path d="m336.332031 189.488281-56.738281 56.738281h80.242188c-7.398438-7.386718-13.496094-16.105468-17.582032-25.953124-4.082031-9.851563-5.929687-20.328126-5.921875-30.785157zm0 0"/><path d="m347.191406 361.003906c-15.195312-6.78125-32.59375-7.074218-47.992187-.703125-15.402344 6.378907-27.480469 18.898438-33.433594 34.417969v117.265625c11.679687-31.613281 36.082031-57.097656 67.265625-70.015625 31.183594-12.929688 66.460938-12.160156 97.078125 1.953125zm0 0"/><path d="m246.234375 394.726562c-5.953125-15.527343-18.03125-28.046874-33.433594-34.417968-15.398437-6.378906-32.796875-6.066406-47.992187.703125l-82.917969 82.917969c30.617187-14.109376 65.90625-14.882813 97.078125-1.953126 31.175781 12.917969 55.585938 38.40625 67.265625 70.019532zm0 0"/><path d="m394.734375 265.773438c-15.539063 5.949218-28.058594 18.027343-34.429687 33.441406-6.382813 15.398437-6.078126 32.785156.703124 47.980468l82.917969 82.917969c-14.101562-30.617187-14.871093-65.90625-1.953125-97.078125 12.910156-31.183594 38.414063-55.585937 70.027344-67.261718zm0 0"/><path d="m164.808594 150.988281c15.195312 6.78125 32.59375 7.074219 47.992187.703125 15.402344-6.382812 27.480469-18.890625 33.433594-34.417968v-117.26953175c-11.679687 31.61328175-36.082031 57.10156275-67.265625 70.01953175-31.183594 12.929687-66.460938 12.167968-97.078125-1.953126zm0 0"/><path d="m265.777344 117.273438c5.949218 15.527343 18.03125 28.046874 33.429687 34.417968 15.402344 6.378906 32.789063 6.078125 47.992188-.703125l82.917969-82.917969c-30.617188 14.101563-65.902344 14.871094-97.078126 1.953126-31.171874-12.917969-55.582031-38.40625-67.261718-70.01953175zm0 0"/><path d="m117.265625 246.226562c15.53125-5.949218 28.046875-18.027343 34.429687-33.441406 6.382813-15.398437 6.070313-32.785156-.703124-47.980468l-82.917969-82.917969c14.101562 30.617187 14.863281 65.894531 1.953125 97.078125s-38.402344 55.585937-70.027344 67.261718zm0 0"/><path d="m68.074219 430.113281 82.917969-82.917969c6.773437-15.1875 7.085937-32.582031.703124-47.980468-6.382812-15.414063-18.898437-27.480469-34.429687-33.441406h-117.265625c31.613281 11.675781 57.109375 36.078124 70.027344 67.261718 12.910156 31.183594 12.136718 66.460938-1.953125 97.078125zm0 0"/></svg>