<svg id="Capa_1" enable-background="new 0 0 512 512" height="512" viewBox="0 0 512 512" width="512" xmlns="http://www.w3.org/2000/svg"><path d="m271.213 0c-110.001 0-199.493 89.492-199.493 199.492v26.207l-29.78 98.483c-2.331 7.707 1.839 15.879 9.447 18.515l50.754 17.585v70.512c0 8.284 6.716 15 15 15h76.265v51.206c0 8.284 6.716 15 15 15h182.531c8.284 0 15-6.716 15-15v-150.394c41.247-37.785 64.767-91.006 64.767-147.114.001-110-89.491-199.492-199.491-199.492zm-2.091 335.206c-75.805 0-137.478-61.672-137.478-137.478 0-75.805 61.672-137.478 137.478-137.478s137.478 61.672 137.478 137.478c-.001 75.805-61.673 137.478-137.478 137.478z"/><path d="m269.122 90.25c-59.263 0-107.478 48.214-107.478 107.478s48.214 107.478 107.478 107.478 107.478-48.214 107.478-107.478c-.001-59.264-48.215-107.478-107.478-107.478zm51.413 91.988-52.192 52.192c-2.929 2.929-6.768 4.394-10.606 4.394-3.839 0-7.678-1.464-10.606-4.394l-29.421-29.421c-5.858-5.858-5.858-15.355 0-21.213 5.857-5.858 15.355-5.858 21.213 0l18.815 18.814 41.585-41.585c5.857-5.858 15.355-5.858 21.213 0 5.857 5.858 5.857 15.355-.001 21.213z"/></svg>