<?xml version="1.0"?>
<svg xmlns="http://www.w3.org/2000/svg" id="Layer_1" enable-background="new 0 0 192 192" height="512px" viewBox="0 0 192 192" width="512px"><g><path d="m184 40h-32v-9.1c0-5.9-3.2-11.3-8.5-14.1-5.2-2.8-11.5-2.5-16.4.8l-7.2 4.8c-.8-13.2-12.2-23.2-25.5-22.4-12 .8-21.6 10.4-22.4 22.4l-7.2-4.8c-7.4-4.9-17.3-2.9-22.2 4.4-1.8 2.6-2.7 5.7-2.7 8.9v9.1h-31.9c-4.4 0-8 3.6-8 8v24c0 4.4 3.6 8 8 8h176c4.4 0 8-3.6 8-8v-24c0-4.4-3.6-8-8-8zm-48-9.1v9.1h-13.6zm-40-14.9c4.4 0 8 3.6 8 8s-3.6 8-8 8-8-3.6-8-8 3.6-8 8-8zm-40 14.9 13.6 9.1h-13.6z" data-original="#000000" class="active-path" data-old_color="#000000" fill="#111111"/><path d="m16 184c0 4.4 3.6 8 8 8h144c4.4 0 8-3.6 8-8v-96h-160zm96-16c-4.4 0-8-3.6-8-8s3.6-8 8-8 8 3.6 8 8-3.6 8-8 8zm-32-64c4.4 0 8 3.6 8 8s-3.6 8-8 8-8-3.6-8-8 3.6-8 8-8zm43.2 1.6 9.6 12.8-64 48-9.6-12.8z" data-original="#000000" class="active-path" data-old_color="#000000" fill="#111111"/></g> </svg>
