<?xml version="1.0"?>
<svg xmlns="http://www.w3.org/2000/svg" xmlns:xlink="http://www.w3.org/1999/xlink" version="1.1" id="Capa_1" x="0px" y="0px" viewBox="0 0 213.876 213.876" style="enable-background:new 0 0 213.876 213.876;" xml:space="preserve" width="512px" height="512px"><g><path d="M183.707,33.337H132.08v-5.625c0-2.762-2.239-5-5-5h-15.142V5c0-2.762-2.239-5-5-5s-5,2.238-5,5v17.712H87.146  c-2.761,0-5,2.238-5,5v5.625H30.169c-2.761,0-5,2.238-5,5v104.571c0,2.762,2.239,5,5,5h18.642v3.058c0,2.762,2.239,5,5,5h13.382  l-6.804,33.712c-0.001,0.005-0.002,0.009-0.003,0.014l-3.672,18.194c-0.546,2.707,1.205,5.344,3.912,5.891  c0.334,0.067,0.667,0.1,0.995,0.1c2.331,0,4.417-1.639,4.896-4.012l2.86-14.172h32.561v13.183c0,2.762,2.239,5,5,5s5-2.238,5-5  v-13.183h32.561l2.86,14.172c0.479,2.373,2.565,4.012,4.896,4.012c0.328,0,0.661-0.032,0.995-0.1  c2.707-0.547,4.458-3.184,3.912-5.891l-3.672-18.194c-0.001-0.005-0.002-0.009-0.003-0.014l-6.804-33.712h13.382  c2.761,0,5-2.238,5-5v-3.058h18.642c2.761,0,5-2.238,5-5V38.337C188.707,35.575,186.468,33.337,183.707,33.337z M92.146,32.712  h29.934v9.125H92.146V32.712z M57.1,99.278c1.606,0,3.121,0.38,4.478,1.037L75.3,90.639c-0.137-0.726-0.216-1.471-0.216-2.236  c0-6.651,5.411-12.063,12.063-12.063s12.063,5.411,12.063,12.063c0,0.467-0.033,0.926-0.085,1.38l13.429,8.091  c1.882-1.268,4.147-2.009,6.582-2.009c0.934,0,1.839,0.12,2.712,0.327l17.768-22.457c-0.875-1.68-1.377-3.584-1.377-5.606  c0-6.72,5.467-12.188,12.188-12.188c6.72,0,12.188,5.468,12.188,12.188c0,6.721-5.467,12.188-12.188,12.188  c-1.025,0-2.015-0.141-2.967-0.38l-17.772,22.462c0.799,1.591,1.26,3.38,1.26,5.279c0,6.514-5.299,11.813-11.813,11.813  c-6.514,0-11.813-5.299-11.813-11.813c0-0.419,0.024-0.833,0.066-1.241l-13.427-8.09c-1.941,1.334-4.287,2.12-6.815,2.12  c-2.217,0-4.29-0.612-6.077-1.66L67.35,108.48c0.039,0.365,0.062,0.735,0.062,1.111c0,5.687-4.626,10.313-10.313,10.313  s-10.313-4.626-10.313-10.313S51.414,99.278,57.1,99.278z M71.396,185.692l6-29.727h24.542v29.727H71.396z M142.48,185.692h-30.542  v-29.727h24.542L142.48,185.692z M155.065,145.966H140.6c-0.007,0-0.014,0-0.021,0H73.292c-0.005,0-0.01,0-0.015,0H58.811v-6.573  h96.254V145.966z" data-original="#000000" class="active-path" data-old_color="#000000" fill="#FF3B4D"/></g> </svg>
