<?xml version="1.0"?>
<svg xmlns="http://www.w3.org/2000/svg" height="512px" viewBox="0 0 64 64" width="512px" class="hovered-paths"><g><g id="Edit-2" data-name="Edit"><path d="m5 52h3v-33a1 1 0 0 1 .293-.707l10.293-10.293h-13.586a1 1 0 0 0 -1 1v42a1 1 0 0 0 1 1z" data-original="#000000" class="hovered-path active-path" data-old_color="#000000" fill="#FF3B4D"/><path d="m52 41.555-8.34 14.445h7.34a1 1 0 0 0 1-1z" data-original="#000000" class="hovered-path active-path" data-old_color="#000000" fill="#FF3B4D"/><path d="m11 56h23.3l.239-3.988a1 1 0 0 1 .132-.44l17.417-30.172a.989.989 0 0 1 -.088-.4v-16a1 1 0 0 0 -1-1h-25v13a3 3 0 0 1 -3 3h-13v35a1 1 0 0 0 1 1z" data-original="#000000" class="hovered-path active-path" data-old_color="#000000" fill="#FF3B4D"/><path d="m54.366 29.457-12.75 22.084.982 2.298 13.5-23.382z" data-original="#000000" class="hovered-path active-path" data-old_color="#000000" fill="#FF3B4D"/><path d="m24 17v-11.586l-12.586 12.586h11.586a1 1 0 0 0 1-1z" data-original="#000000" class="hovered-path active-path" data-old_color="#000000" fill="#FF3B4D"/><path d="m54.4 21.4-.5.866 5.2 3 .5-.866a3 3 0 1 0 -5.2-3z" data-original="#000000" class="hovered-path active-path" data-old_color="#000000" fill="#FF3B4D"/><path d="m37.5 56.669a4.992 4.992 0 0 0 -1.208-.495l-.174 2.889 2.408-1.589a5.018 5.018 0 0 0 -1.026-.805z" data-original="#000000" class="hovered-path active-path" data-old_color="#000000" fill="#FF3B4D"/><path d="m54 23.359h1.999v5.999h-1.999z" transform="matrix(.5 -.866 .866 .5 4.671 60.808)" data-original="#000000" class="hovered-path active-path" data-old_color="#000000" fill="#FF3B4D"/><path d="m50.902 27.457-13.5 23.383 2.482-.299 12.75-22.084z" data-original="#000000" class="hovered-path active-path" data-old_color="#000000" fill="#FF3B4D"/><path d="m41.216 55.7-1.341-3.141-3.39.409-.072 1.185a6.894 6.894 0 0 1 3.813 2.2z" data-original="#000000" class="hovered-path active-path" data-old_color="#000000" fill="#FF3B4D"/></g></g> </svg>
