<?xml version="1.0" encoding="utf-8"?>
<!-- Generator: Adobe Illustrator 21.0.0, SVG Export Plug-In . SVG Version: 6.00 Build 0)  -->
<svg version="1.1" id="Шар_1" xmlns="http://www.w3.org/2000/svg" xmlns:xlink="http://www.w3.org/1999/xlink" x="0px" y="0px"
	 viewBox="0 0 512 512" style="enable-background:new 0 0 512 512;" xml:space="preserve">
<style type="text/css">
	.st0{fill:#ff3b4d;}
</style>
<path class="st0" d="M501.9,143.6L241,54.3v-25C241,13.1,227.8,0,211.7,0h-71.4C124.1,0,111,13.1,111,29.3V58L5.4,146.2
	c-4.8,4-6.6,10.7-4.5,16.6c2.2,5.9,7.8,9.9,14.1,9.9h96v259.5c-13.7,2.5-24,14.5-24,28.8V482h-15c-8.3,0-15,6.7-15,15s6.7,15,15,15
	H280c8.3,0,15-6.7,15-15s-6.7-15-15-15h-15v-20.9c0-14.4-10.4-26.3-24-28.8V172.8h140.6v67.6c0,8.3,6.7,15,15,15
	c11.5,0,20.8,9.3,20.8,20.8S408,297,396.5,297c-11.5,0-20.8-9.3-20.8-20.8c0-8.3-6.7-15-15-15s-15,6.7-15,15
	c0,28,22.8,50.8,50.8,50.8s50.8-22.8,50.8-50.8c0-22.8-15.1-42.1-35.8-48.6v-54.9H497c7.3,0,13.6-5.3,14.8-12.5
	C513,153,508.8,145.9,501.9,143.6z M211,345.2l-59-42.9l59-42.9V345.2z M200.4,374.6L141,417.8v-86.4L200.4,374.6z M172.8,431.8
	l38.2-27.7v27.7H172.8z M141,273.2v-86l59.3,43L141,273.2z M211,123.4L164.2,80H211V123.4z M187.7,142.8H141V99.4L187.7,142.8z
	 M331.3,116.9l75.6,25.9H350L331.3,116.9z M313,142.8h-52.9l29.6-32.2L313,142.8z M264.2,93.9L241,119.2V86L264.2,93.9z M211,30v20
	h-70V30H211z M56.3,142.8L111,97.1v45.7H56.3z M211,200.9l-38.8-28.2H211V200.9z"/>
</svg>
