<?xml version="1.0"?>
<svg xmlns="http://www.w3.org/2000/svg" height="512px" viewBox="0 0 512 512" fill='#ff3b4d' width="512px"><g><path d="m111.441406 412.082031c-12.457031 0-62.816406-.03125-75.277344-.03125-9.65625 0-18.746093 3.773438-25.585937 10.625-6.835937 6.84375-10.5898438 15.917969-10.578125 25.558594l.0507812 34.578125c.0078126 5.609375 3.1445308 10.746094 8.1367188 13.3125 20.191406 10.386719 42.941406 15.875 65.78125 15.875 22.84375 0 45.589844-5.488281 65.785156-15.875 4.988282-2.566406 8.128906-7.703125 8.136719-13.3125l.046875-34.546875c.015625-9.535156-3.742188-18.550781-10.574219-25.394531-6.847656-6.855469-16.296875-10.789063-25.921875-10.789063zm0 0" data-original="#000000" class="active-path" data-old_color="#000000" fill="#ff3b4d"/><path d="m73.953125 398.964844c29.667969 0 53.800781-24.136719 53.800781-53.800782 0-29.664062-24.136718-53.800781-53.800781-53.800781s-53.800781 24.136719-53.800781 53.800781c0 29.664063 24.132812 53.800782 53.800781 53.800782zm0 0" data-original="#000000" class="active-path" data-old_color="#000000" fill="#ff3b4d"/><path d="m292.886719 412.082031c-12.457031 0-62.820313-.03125-75.28125-.03125-9.65625 0-18.742188 3.773438-25.585938 10.625-6.835937 6.84375-10.589843 15.917969-10.578125 25.558594l.050782 34.578125c.007812 5.609375 3.144531 10.746094 8.136718 13.3125 20.195313 10.386719 42.941406 15.875 65.78125 15.875 22.84375 0 45.589844-5.488281 65.785156-15.875 4.988282-2.566406 8.128907-7.703125 8.136719-13.3125l.050781-34.546875c.011719-9.535156-3.742187-18.550781-10.578124-25.394531-6.847657-6.855469-16.292969-10.789063-25.917969-10.789063zm0 0" data-original="#000000" class="active-path" data-old_color="#000000" fill="#ff3b4d"/><path d="m201.59375 345.164062c0 29.667969 24.136719 53.800782 53.800781 53.800782 29.667969 0 53.800781-24.136719 53.800781-53.800782 0-29.664062-24.132812-53.800781-53.800781-53.800781-29.664062 0-53.800781 24.132813-53.800781 53.800781zm0 0" data-original="#000000" class="active-path" data-old_color="#000000" fill="#ff3b4d"/><path d="m501.273438 422.871094c-6.847657-6.855469-16.296876-10.789063-25.917969-10.789063-12.457031 0-62.816407-.03125-75.28125-.03125-9.65625 0-18.746094 3.773438-25.585938 10.625-6.832031 6.84375-10.589843 15.917969-10.574219 25.558594l.046876 34.578125c.007812 5.609375 3.148437 10.746094 8.136718 13.3125 20.195313 10.386719 42.941406 15.875 65.785156 15.875 22.839844 0 45.589844-5.488281 65.78125-15.875 4.992188-2.566406 8.132813-7.703125 8.140626-13.3125l.046874-34.550781c.011719-9.53125-3.746093-18.546875-10.578124-25.390625zm0 0" data-original="#000000" class="active-path" data-old_color="#000000" fill="#ff3b4d"/><path d="m384.0625 345.164062c0 29.667969 24.136719 53.800782 53.800781 53.800782 29.667969 0 53.804688-24.136719 53.804688-53.800782 0-29.664062-24.136719-53.800781-53.804688-53.800781-29.664062 0-53.800781 24.132813-53.800781 53.800781zm0 0" data-original="#000000" class="active-path" data-old_color="#000000" fill="#ff3b4d"/><path d="m76.976562 50.136719h6v201.9375c0 8.28125 6.714844 14.996093 14.996094 14.996093h315.90625c8.28125 0 14.996094-6.714843 14.996094-14.996093v-201.9375h5.996094c8.285156 0 14.996094-6.714844 14.996094-14.996094s-6.710938-14.996094-14.996094-14.996094h-163.949219v-5.148437c0-8.28125-6.714844-14.996094-14.996094-14.996094s-14.996093 6.714844-14.996093 14.996094v5.148437h-163.953126c-8.28125 0-14.992187 6.714844-14.992187 14.996094s6.710937 14.996094 14.992187 14.996094zm63.242188 97.699219c5.777344-5.933594 15.269531-6.054688 21.203125-.273438l26.507813 25.839844 81.0625-79.019532c5.824218-5.679687 15.109374-5.679687 20.933593 0l38.679688 37.703126 21.820312-21.269532c5.929688-5.78125 15.421875-5.660156 21.203125.269532 5.78125 5.933593 5.660156 15.425781-.269531 21.207031l-32.289063 31.472656c-5.824218 5.675781-15.109374 5.675781-20.933593 0l-38.679688-37.703125-81.058593 79.019531c-2.914063 2.835938-6.691407 4.257813-10.46875 4.257813-3.78125 0-7.558594-1.421875-10.46875-4.257813l-36.972657-36.042969c-5.929687-5.777343-6.050781-15.273437-.269531-21.203124zm0 0" data-original="#000000" class="active-path" data-old_color="#000000" fill="#ff3b4d"/></g> </svg>
