<?xml version="1.0"?>
<svg xmlns="http://www.w3.org/2000/svg" height="512px" viewBox="0 0 512 512" fill="#ff3b4d" width="512px" class=""><g transform="matrix(-1 0 0 1 512 0)"><path d="m256 512c62.40625 0 119.578125-23.613281 163.945312-60.96875-35.066406-54.523438-96.066406-90.03125-163.945312-90.03125-68.449219 0-129.421875 34.839844-164.347656 89.664062 44.425781 37.570313 101.746094 61.335938 164.347656 61.335938zm-45-121h90v30h-90zm0 0" data-original="#000000" class="active-path" data-old_color="#000000" fill="#ff3b4d"/><path d="m91.753906 271c3.214844 36.027344 18.058594 69.382812 42.644532 96.171875 35.316406-22.675781 76.871093-36.171875 121.601562-36.171875 44.421875 0 86.292969 13.257812 121.683594 36.085938 24.542968-26.777344 39.351562-60.097657 42.5625-96.085938h-29.246094v-30h29.238281c-3.101562-34.242188-16.660156-65.496094-37.519531-90.507812l-20.648438 20.648437-21.210937-21.210937 20.648437-20.648438c-25.011718-20.859375-56.265624-34.417969-90.507812-37.519531v29.238281h-30v-29.238281c-34.242188 3.101562-65.496094 16.660156-90.507812 37.519531l20.648437 20.648438-21.210937 21.210937-20.648438-20.648437c-20.859375 25.011718-34.417969 56.265624-37.519531 90.507812h29.238281v30zm187.640625-53.4375c13.535157 8.246094 21.605469 22.617188 21.605469 38.4375 0 24.8125-20.1875 45-45 45-15.820312 0-30.191406-8.070312-38.4375-21.605469l-51.78125-113.613281zm0 0" data-original="#000000" class="active-path" data-old_color="#000000" fill="#ff3b4d"/><path d="m256 0c-140.609375 0-256 115.390625-256 256 0 67.183594 27.308594 128.199219 69.921875 173.792969 11.339844-16.804688 24.847656-31.789063 40.089844-44.800781-31.652344-35.640626-49.011719-80.792969-49.011719-128.992188 0-107.519531 87.480469-195 195-195s195 87.480469 195 195c0 48.230469-17.382812 93.40625-49.074219 129.058594 15.265625 13.015625 28.75 28.066406 40.121094 44.769531 42.632813-45.597656 69.953125-106.628906 69.953125-173.828125 0-140.609375-115.390625-256-256-256zm0 0" data-original="#000000" class="active-path" data-old_color="#000000" fill="#ff3b4d"/><path d="m256 271c8.277344 0 15-6.722656 15-15 0-5.023438-2.445312-9.609375-6.59375-12.421875l-38.1875-17.359375 17.800781 39.15625c1.917969 2.929688 6.707031 5.625 11.980469 5.625zm0 0" data-original="#000000" class="active-path" data-old_color="#000000" fill="#ff3b4d"/></g> </svg>
